# xmcd CD database file generated by Grip 2.5
# 
# Track frame offsets:
#       150
#       19322
#       42665
#       68411
#       90363
#       114176
#       133375
#       160944
#       181238
#       216960
#       238512
#       258505
#       289710
# 
# Disc length: 4299 seconds
# 
# Revision: 3
# Processed by: cddbd v1.4b41PL1 Copyright (c) Steve Scherf et al.
# Submitted via: Grip 2.5
# 
DISCID=b510c90d
DTITLE=Greg SZLAPCZYNSKI - Gregtime
DYEAR=1900
DGENRE=
TTITLE0=Pour le meilleur
TTITLE1=Do what you do ?
TTITLE2=Niech poplyna lzy
TTITLE3=B.A.R.J.O.
TTITLE4=Hookie Boogie (Avec J.J. Milteau)
TTITLE5=Who do you love (Avec J.J. Milteau)
TTITLE6=Loïs
TTITLE7=The blues will never leave you
TTITLE8=Fifi a donf (Avec O. Ker Ourio)
TTITLE9=Can't live without
TTITLE10=Jolie Cosette
TTITLE11=Run me down
TTITLE12=Tie break blues (Avec J.M. Ecay)
EXTD=
EXTT0=
EXTT1=
EXTT2=
EXTT3=
EXTT4=
EXTT5=
EXTT6=
EXTT7=
EXTT8=
EXTT9=
EXTT10=
EXTT11=
EXTT12=
PLAYORDER=
